<svg width="20" height="20" viewBox="0 0 20 20" fill="none" xmlns="http://www.w3.org/2000/svg">
<g id="Group">
<path id="Path" fill-rule="evenodd" clip-rule="evenodd" d="M6.44266 17.3606C6.0201 17.5811 5.50889 17.5423 5.12451 17.2604C4.74012 16.9785 4.5494 16.5027 4.63274 16.0333L5.30719 12.1676L2.46767 9.44643C2.12059 9.11544 1.99339 8.6151 2.14025 8.15853C2.28711 7.70196 2.68216 7.36961 3.15712 7.30304L7.0996 6.73947L8.87951 3.18883C9.09054 2.763 9.52472 2.49361 9.99997 2.49361C10.4752 2.49361 10.9094 2.763 11.1204 3.18883L12.9003 6.73947L16.8428 7.30304C17.3178 7.36961 17.7128 7.70196 17.8597 8.15853C18.0066 8.6151 17.8794 9.11544 17.5323 9.44643L14.6928 12.1676L15.3672 16.0342C15.4505 16.5035 15.2598 16.9794 14.8754 17.2613C14.4911 17.5431 13.9798 17.582 13.5573 17.3614L9.99997 15.5231L6.44266 17.3606Z" fill="#FAE101" stroke="#FAE101" stroke-width="1.5" stroke-linecap="round" stroke-linejoin="round"/>
</g>
</svg>
